<svg width="387.2" height="70.001" viewBox="0 0 387.2 70.001" xmlns="http://www.w3.org/2000/svg">
    <g fill="#ffffff">
        <path d="M 71.5 69 L 58.3 0 L 73.3 0 L 83.3 57.1 L 86.5 57.1 L 96.8 0 L 112.5 0 L 122.7 57.1 L 126 57.1 L 136 0 L 150.3 0 L 137.1 69 L 113.4 69 L 106 24.7 L 102.7 24.7 L 95.2 69 L 71.5 69 Z M 0 42.1 L 0 39.4 L 14.7 39.4 L 14.7 45.4 Q 14.7 51.647 16.749 54.779 A 7.725 7.725 0 0 0 17.2 55.4 A 7.7 7.7 0 0 0 20.797 57.841 Q 22.103 58.289 23.714 58.432 A 17.902 17.902 0 0 0 25.3 58.5 A 15.182 15.182 0 0 0 28.306 58.222 Q 31.557 57.565 33.35 55.35 A 9.515 9.515 0 0 0 34.879 52.531 Q 35.799 49.952 35.89 46.155 A 35.461 35.461 0 0 0 35.9 45.3 L 35.9 10.7 L 16.1 10.7 L 16.1 0 L 50.6 0 L 50.6 41.9 Q 50.6 50.789 48.185 56.819 A 20.726 20.726 0 0 1 44.35 63.1 Q 38.933 69.081 28.595 69.878 A 42.889 42.889 0 0 1 25.3 70 Q 16.568 70 10.884 66.812 A 18.421 18.421 0 0 1 6.25 63.15 Q 0 56.3 0 42.1 Z M 365.2 25.4 L 368.4 25.4 A 325.956 325.956 0 0 1 367.966 21.267 Q 367.4 15.507 367.4 12.8 L 367.4 10.3 L 361.7 10.3 L 361.7 0 L 381.7 0 L 381.7 58.7 L 387.2 58.7 L 387.2 69 L 378.1 69 Q 374.942 69 372.89 67.759 A 6.751 6.751 0 0 1 371.55 66.7 A 7.419 7.419 0 0 1 369.762 63.586 Q 369.416 62.433 369.329 61.049 A 15.193 15.193 0 0 1 369.3 60.1 L 369.3 58.2 L 366.1 58.2 Q 364.7 64 360.95 67 A 13.456 13.456 0 0 1 354.872 69.707 A 18.605 18.605 0 0 1 351.5 70 A 17.542 17.542 0 0 1 344.555 68.642 A 16.785 16.785 0 0 1 341.1 66.65 A 19.206 19.206 0 0 1 336.276 61.33 A 26.011 26.011 0 0 1 334.15 57.05 Q 331.854 51.191 331.71 43.354 A 57.535 57.535 0 0 1 331.7 42.3 A 50.466 50.466 0 0 1 332.276 34.427 Q 332.94 30.233 334.367 26.826 A 24.078 24.078 0 0 1 337.05 22 Q 342.201 14.876 350.826 14.61 A 21.877 21.877 0 0 1 351.5 14.6 Q 362.7 14.6 365.2 25.4 Z M 249.8 38.1 L 263.1 36.8 L 263.1 34.8 A 18.212 18.212 0 0 0 262.944 32.325 Q 262.542 29.4 261.1 27.85 Q 259.1 25.7 254.9 25.7 Q 250.8 25.7 248.75 27.45 A 5.966 5.966 0 0 0 247.314 29.21 A 5.484 5.484 0 0 0 246.7 31.8 L 246.7 32.8 L 232.2 32.8 A 24.879 24.879 0 0 1 234.974 24.311 Q 240.445 14.6 255.2 14.6 A 36.853 36.853 0 0 1 261.5 15.103 Q 267.866 16.209 271.75 19.75 Q 277.133 24.656 277.388 33.782 A 32.873 32.873 0 0 1 277.4 34.7 L 277.4 58.7 L 282.9 58.7 L 282.9 69 L 273.8 69 Q 270.688 69 268.649 67.821 A 6.74 6.74 0 0 1 267.25 66.75 A 7.207 7.207 0 0 1 265.466 63.689 Q 265.119 62.546 265.03 61.166 A 15.138 15.138 0 0 1 265 60.2 L 265 58.7 L 261.8 58.7 A 21.28 21.28 0 0 1 260.596 62.327 Q 259.732 64.276 258.524 65.712 A 11.09 11.09 0 0 1 256.95 67.25 A 11.641 11.641 0 0 1 252.986 69.269 Q 251.308 69.772 249.297 69.929 A 24.372 24.372 0 0 1 247.4 70 A 22.971 22.971 0 0 1 242.565 69.521 Q 239.458 68.852 237.112 67.247 A 13.31 13.31 0 0 1 235.5 65.95 A 13.289 13.289 0 0 1 231.62 58.892 A 19.828 19.828 0 0 1 231.2 54.7 A 16.673 16.673 0 0 1 232.797 47.185 Q 236.158 40.431 246.597 38.547 A 42.184 42.184 0 0 1 249.8 38.1 Z M 182.1 69 L 182.1 58.7 L 207.7 25.9 L 182.4 25.9 L 182.4 15.6 L 225 15.6 L 225 25.9 L 199.4 58.7 L 225.3 58.7 L 225.3 69 L 182.1 69 Z M 291.1 69 L 291.1 25.9 L 285.6 25.9 L 285.6 15.6 L 303.5 15.6 L 303.5 26.3 L 306.8 26.3 A 24.14 24.14 0 0 1 307.913 22.762 Q 309.25 19.481 311.4 17.6 A 10.787 10.787 0 0 1 315.799 15.317 Q 317.434 14.881 319.372 14.813 A 20.72 20.72 0 0 1 320.1 14.8 L 325.8 14.8 L 325.8 25.9 L 314 25.9 A 12.016 12.016 0 0 0 311.533 26.137 Q 308.961 26.677 307.5 28.45 A 7.809 7.809 0 0 0 306.2 30.82 Q 305.4 33.067 305.4 36.4 L 305.4 69 L 291.1 69 Z M 158.8 69 L 158.8 25.9 L 153.1 25.9 L 153.1 15.6 L 173.1 15.6 L 173.1 69 L 158.8 69 Z M 367.4 46.2 L 367.4 38.4 A 27.645 27.645 0 0 0 367.203 34.968 Q 366.747 31.334 365.238 29.194 A 7.684 7.684 0 0 0 364.9 28.75 A 7.829 7.829 0 0 0 361.074 26.243 Q 359.771 25.836 358.187 25.734 A 16.949 16.949 0 0 0 357.1 25.7 Q 353.48 25.7 351.163 27.071 A 7.365 7.365 0 0 0 349.2 28.75 A 9.256 9.256 0 0 0 347.677 31.537 Q 346.7 34.275 346.7 38.4 L 346.7 46.2 A 27.645 27.645 0 0 0 346.898 49.632 Q 347.354 53.266 348.863 55.406 A 7.684 7.684 0 0 0 349.2 55.85 Q 351.393 58.525 355.815 58.854 A 17.323 17.323 0 0 0 357.1 58.9 Q 360.712 58.9 363.023 57.484 A 7.423 7.423 0 0 0 364.9 55.85 A 9.256 9.256 0 0 0 366.424 53.063 Q 367.4 50.325 367.4 46.2 Z M 158.1 11.6 L 158.1 0 L 173.5 0 L 173.5 11.6 L 158.1 11.6 Z M 263.1 51.7 L 263.1 45.8 L 254.1 46.7 A 24.532 24.532 0 0 0 251.848 47.003 Q 249.614 47.418 248.264 48.211 A 5.69 5.69 0 0 0 247.75 48.55 A 4.705 4.705 0 0 0 245.835 52.005 A 6.836 6.836 0 0 0 245.8 52.7 L 245.8 53.9 A 5.107 5.107 0 0 0 246.121 55.748 Q 246.595 56.981 247.772 57.812 A 5.774 5.774 0 0 0 247.9 57.9 A 7.331 7.331 0 0 0 249.887 58.806 Q 251.544 59.3 253.8 59.3 A 16.617 16.617 0 0 0 257.253 58.974 Q 262.337 57.889 263.001 53.191 A 10.669 10.669 0 0 0 263.1 51.7 Z"/>
    </g>
</svg>